<?xml version="1.0" encoding="UTF-8"?>
<svg width="385px" height="33px" viewBox="0 0 385 33" version="1.1" xmlns="http://www.w3.org/2000/svg" xmlns:xlink="http://www.w3.org/1999/xlink">
    <!-- Generator: Sketch 62 (91390) - https://sketch.com -->
    <title>Singular Grid</title>
    <desc>Created with Sketch.</desc>
    <g id="Page-1" stroke="none" stroke-width="1" fill="none" fill-rule="evenodd">
        <g id="Artboard" transform="translate(-511.000000, -145.000000)" fill="#9D9FB8" fill-rule="nonzero">
            <g id="Singular-Grid" transform="translate(511.000000, 145.000000)">
                <rect id="Rectangle" x="39" y="1" width="4" height="32"></rect>
                <path d="M76.1716418,24.8135593 L56.358209,0.745762712 C55.8208955,0.13559322 55.0149254,-0.13559322 54.2761194,0.203389831 C53.5373134,0.474576271 53,1.22033898 53,1.96610169 L53,31.8644068 L56.761194,31.8644068 L56.761194,7.25423729 L76.5746269,31.3220339 C76.9104478,31.7966102 77.4477612,32 78.0522388,32 C78.2537313,32 78.4552239,31.9322034 78.7238806,31.8644068 C79.4626866,31.5932203 80,30.8474576 80,30.1016949 L80,0 L76.238806,0 L76.238806,24.8135593 L76.1716418,24.8135593 Z" id="Path"></path>
                <path d="M88,16.0002389 C88,24.8511706 95.1945701,32 103.950226,32 L115.963801,32 C117.049774,32 117.864253,31.1149068 117.864253,30.0936455 L117.864253,16.0002389 C117.864253,14.9108935 116.9819,14.0938844 115.963801,14.0938844 L101.031674,14.0938844 L101.031674,17.9065934 L114.063348,17.9065934 L114.063348,28.187291 L104.0181,28.187291 C97.2986425,28.187291 91.8687783,22.7405638 91.8687783,16.0002389 C91.8687783,9.25991401 97.2986425,3.81318683 104.0181,3.81318683 L118,3.81318683 L118,0.000477803112 L104.0181,0.000477803112 C95.1945701,-0.0676062867 88,7.14930723 88,16.0002389" id="Path"></path>
                <path d="M151.194175,18.0338983 C151.194175,23.6610169 146.640777,28.2033898 141,28.2033898 C135.359223,28.2033898 130.805825,23.6610169 130.805825,18.0338983 L130.805825,0 L127,0 L127,18.0338983 C127,25.7627119 133.252427,32 141,32 C148.747573,32 155,25.7627119 155,18.0338983 L155,0 L151.194175,0 L151.194175,18.0338983 Z" id="Path"></path>
                <path d="M166.891239,0 L163,0 L163,30.1016949 C163,31.1864407 163.903323,32 164.945619,32 L186,32 L186,28.2033898 L166.891239,28.2033898 L166.891239,0 Z" id="Path"></path>
                <path d="M206.96603,0 C206.218684,0 205.539278,0.407643312 205.199575,1.08704883 L191,32 L195.212314,32 L197.997877,26.0212314 L216.002123,26.0212314 L219.127389,32 L223,32 L208.732484,1.08704883 C208.392781,0.475583864 207.713376,0 206.96603,0 M199.696391,22.2845011 L206.96603,6.52229299 L214.235669,22.2845011 L199.696391,22.2845011 Z" id="Shape"></path>
                <path d="M21.2028302,14.1763441 L21.2028302,14.1075269 L20.0400943,14.1075269 L8.95990566,14.1075269 C6.15566038,14.1075269 3.89858491,11.8365591 3.89858491,9.01505376 C3.89858491,6.19354839 6.15566038,3.92258065 8.95990566,3.92258065 L27.7004717,3.92258065 L27.7004717,0 L8.95990566,0 C4.03537736,0 0,4.06021505 0,9.01505376 C0,13.5569892 3.35141509,17.3419355 7.72877358,17.8924731 L7.72877358,17.9612903 L8.89150943,17.9612903 L19.9716981,17.9612903 C22.7759434,17.9612903 25.0330189,20.2322581 25.0330189,23.0537634 C25.0330189,25.8752688 22.7759434,28.1462366 19.9716981,28.1462366 L1.2995283,28.1462366 L1.2995283,32 L20.0400943,32 C24.9646226,32 29,27.9397849 29,22.9849462 C29,18.511828 25.5801887,14.7268817 21.2028302,14.1763441" id="Path"></path>
                <path d="M251.056338,17.2881356 C255.004695,16.4745763 258,12.9491525 258,8.74576271 C258,3.93220339 254.051643,0 249.21831,0 L229,0 L229,32 L232.812207,32 L232.812207,17.4915254 L238.802817,17.4915254 C239.007042,17.4915254 242.819249,17.6271186 246.699531,19.3220339 C251.669014,21.4915254 254.119718,25.0847458 254.119718,30.1016949 L254.119718,32 L257.931925,32 L257.931925,30.1016949 C258,23.8644068 254.93662,19.7966102 251.056338,17.2881356 M232.880282,3.86440678 L249.21831,3.86440678 C251.941315,3.86440678 254.119718,6.03389831 254.119718,8.74576271 C254.119718,11.4576271 251.941315,13.6271186 249.21831,13.6271186 L238.870892,13.6271186 L232.880282,13.6271186 L232.880282,3.86440678 Z" id="Shape"></path>
                <path d="M346,33 L341,33 L341,0 L346,0 L346,33 Z M342.111111,31.9180328 L344.888889,31.9180328 L344.888889,1.14959016 L342.111111,1.14959016 L342.111111,31.9180328 Z" id="Shape"></path>
                <path d="M293.490153,33 L281.483589,33 C272.393873,33 265,25.5987654 265,16.5 C265,7.40123457 272.393873,0 281.483589,0 L296,0 L296,4.88888889 L281.483589,4.88888889 C275.107221,4.88888889 269.884026,10.117284 269.884026,16.5 C269.884026,22.882716 275.107221,28.1111111 281.483589,28.1111111 L291.04814,28.1111111 L291.04814,18.9444444 L278.02407,18.9444444 L278.02407,13.9876543 L293.490153,13.9876543 C294.846827,13.9876543 295.932166,15.0740741 295.932166,16.4320988 L295.932166,30.4876543 C295.932166,31.9135802 294.846827,33 293.490153,33 M281.483589,1.01851852 C273.004376,1.01851852 266.085339,7.94444444 266.085339,16.4320988 C266.085339,24.9197531 273.004376,31.845679 281.483589,31.845679 L293.490153,31.845679 C294.236324,31.845679 294.846827,31.2345679 294.846827,30.4876543 L294.846827,16.4320988 C294.846827,15.6851852 294.236324,15.0740741 293.490153,15.0740741 L279.109409,15.0740741 L279.109409,17.7901235 L292.133479,17.7901235 L292.133479,29.1296296 L281.483589,29.1296296 C274.496718,29.1296296 268.798687,23.4259259 268.798687,16.4320988 C268.798687,9.4382716 274.496718,3.7345679 281.483589,3.7345679 L294.914661,3.7345679 L294.914661,1.01851852 L281.483589,1.01851852 Z" id="Shape"></path>
                <path d="M368.480048,33 L356.447332,33 C355.087703,33 354,31.9135802 354,30.5555556 L354,2.44444444 C354,1.08641975 355.087703,0 356.447332,0 L368.480048,0 C377.589562,0 384.99954,7.40123457 384.99954,16.5 C385.067522,25.5987654 377.589562,33 368.480048,33 M356.447332,1.08641975 C355.699536,1.08641975 355.087703,1.69753086 355.087703,2.44444444 L355.087703,30.5555556 C355.087703,31.3024691 355.699536,31.9135802 356.447332,31.9135802 L368.480048,31.9135802 C376.977729,31.9135802 383.911837,24.9876543 383.911837,16.5 C383.911837,8.01234568 376.977729,1.08641975 368.480048,1.08641975 L356.447332,1.08641975 Z M368.480048,29.1975309 L357.806961,29.1975309 L357.806961,3.80246914 L368.480048,3.80246914 C375.482137,3.80246914 381.192579,9.50617284 381.192579,16.5 C381.192579,23.4938272 375.482137,29.1975309 368.480048,29.1975309 M358.894664,28.1111111 L368.480048,28.1111111 C374.870304,28.1111111 380.104876,22.882716 380.104876,16.5 C380.104876,10.117284 374.870304,4.88888889 368.480048,4.88888889 L358.894664,4.88888889 L358.894664,28.1111111 Z" id="Shape"></path>
                <path d="M333,33 L328.113122,33 L328.113122,30.5655738 C328.113122,25.7643443 325.737557,22.3155738 320.986425,20.2868852 C317.38914,18.7315574 313.723982,18.5286885 313.316742,18.5286885 L307.886878,18.5286885 L307.886878,33 L303,33 L303,0 L323.701357,0 C328.791855,0 333,4.125 333,9.26434426 C333,13.1864754 330.420814,16.7028689 326.755656,17.9877049 C330.828054,21.0307377 333,25.3586066 333,30.5655738 L333,33 Z M329.199095,31.9180328 L331.914027,31.9180328 L331.914027,30.5655738 C331.914027,25.2233607 329.674208,21.0983607 325.262443,18.2581967 L324.176471,17.5143443 L325.466063,17.2438525 C329.199095,16.432377 331.9819,13.1188525 331.9819,9.26434426 C331.9819,4.73360656 328.316742,1.08196721 323.769231,1.08196721 L304.153846,1.08196721 L304.153846,31.9180328 L306.868778,31.9180328 L306.868778,17.4467213 L313.384615,17.4467213 C314.131222,17.4467213 317.728507,17.7172131 321.461538,19.3401639 C326.61991,21.5717213 329.199095,25.3586066 329.199095,30.6331967 L329.199095,31.9180328 Z M323.769231,14.6741803 L306.936652,14.6741803 L306.936652,3.8545082 L323.769231,3.8545082 C326.755656,3.8545082 329.199095,6.28893443 329.199095,9.26434426 C329.199095,12.2397541 326.755656,14.6741803 323.769231,14.6741803 M307.954751,13.5922131 L323.701357,13.5922131 C326.144796,13.5922131 328.045249,11.6311475 328.045249,9.26434426 C328.045249,6.82991803 326.076923,4.93647541 323.701357,4.93647541 L307.954751,4.93647541 L307.954751,13.5922131 Z" id="Shape"></path>
            </g>
        </g>
    </g>
</svg>